HIERARCHY
ROOT Hips
{
	OFFSET 0.000000 0.000000 0.000000 
	CHANNELS 6 Xposition Yposition Zposition Yrotation Zrotation Xrotation 
	JOINT Lumbar
	{
		OFFSET 0.000000 0.000000 0.000000 
		CHANNELS 3 Zrotation Xrotation Yrotation
		JOINT Neck
		{
			OFFSET 0.000000 0.445665 0.000000 
			CHANNELS 3 Zrotation Xrotation Yrotation
			End Site
			{
				OFFSET 0.000000 0.227535 0.000000 
			}
		}
		JOINT RightShoulder
		{
			OFFSET 0.019635 0.377685 0.194865 
			CHANNELS 3 Zrotation Xrotation Yrotation
			JOINT RightElbow
			{
				OFFSET 0.000000 -0.243375 0.000000 
				CHANNELS 2 Zrotation Yrotation
				JOINT RightWrist
				{
					OFFSET 0.000000 -0.264825 0.000000 
					CHANNELS 2 Zrotation Xrotation
					End Site
					{
						OFFSET 0.006600 -0.176220 0.000990 
					}
				}
			}
		}
		JOINT LeftShoulder
		{
			OFFSET 0.019635 0.377685 -0.194865 
			CHANNELS 3 Zrotation Xrotation Yrotation
			JOINT LeftElbow
			{
				OFFSET 0.000000 -0.243375 0.000000 
				CHANNELS 2 Zrotation Yrotation
				JOINT LeftWrist
				{
					OFFSET 0.000000 -0.264825 0.000000 
					CHANNELS 2 Zrotation Xrotation
					End Site
					{
						OFFSET 0.006600 -0.176220 -0.000990 
					}
				}
			}
		}
	}
	JOINT RightHip
	{
		OFFSET 0.052140 -0.069960 0.075570 
		CHANNELS 3 Zrotation Xrotation Yrotation
		JOINT RightKnee
		{
			OFFSET 0.000000 -0.402270 0.000000 
			CHANNELS 1 Zrotation
			JOINT RightAnkle
			{
				OFFSET 0.000000 -0.404085 0.000000 
				CHANNELS 3 Zrotation Xrotation Yrotation
				End Site
				{
					OFFSET 0.204105 -0.089430 0.008415 
				}
			}
		}
	}
	JOINT LeftHip
	{
		OFFSET 0.052140 -0.069960 -0.075570 
		CHANNELS 3 Zrotation Xrotation Yrotation
		JOINT LeftKnee
		{
			OFFSET 0.000000 -0.402270 0.000000 
			CHANNELS 1 Zrotation
			JOINT LeftAnkle
			{
				OFFSET 0.000000 -0.404085 0.000000 
				CHANNELS 3 Zrotation Xrotation Yrotation
				End Site
				{
					OFFSET 0.204105 -0.089430 -0.008415 
				}
			}
		}
	}
}
MOTION
Frames: 20
Frame Time: 0.02
0 0.95578 0 176.43661 0 -3.28865 5.6686 3.59233 -1.97727 -33.46871 0.70344 2.93258 11.07636 -63.25224 -86.71203 22.43392 77.12763 -22.88065 -2.16341 23.46683 64.01162 70.07331 18.7899 -84.21595 -23.49722 3.34621 -1.17545 6.90059 -7.89667 -9.1561 3.57212 -4.51911 -9.58891 -0.45458 1.73052 3.47325 -7.77266 5.52706 5.09435 9.34293
-3e-05 0.95579 -8e-05 176.47546 0 -3.28108 5.63957 3.60232 -1.97572 -33.49034 0.70337 2.91917 11.04754 -63.24751 -86.72147 22.42216 77.05247 -22.8668 -2.15136 23.47232 64.02635 70.08812 18.7576 -84.19652 -23.53239 3.33101 -1.18579 6.89818 -7.91805 -9.1445 3.57754 -4.53237 -9.58591 -0.45209 1.72971 3.46633 -7.77296 5.51737 5.09 9.321
-7e-05 0.9558 -0.00017 176.51434 0 -3.27354 5.61078 3.61224 -1.97422 -33.51232 0.70332 2.90581 11.01927 -63.24283 -86.73093 22.41052 76.97787 -22.85298 -2.13943 23.47828 64.04103 70.10218 18.72578 -84.17687 -23.56707 3.31589 -1.19614 6.8958 -7.93948 -9.13291 3.5829 -4.54547 -9.58299 -0.44962 1.7289 3.45935 -7.77325 5.50776 5.08564 9.29902
-0.0001 0.9558 -0.00025 176.55364 0 -3.26601 5.58262 3.62193 -1.97296 -33.5356 0.70345 2.89254 10.99252 -63.23847 -86.74072 22.39928 76.90506 -22.83902 -2.12779 23.48571 64.05557 70.11379 18.69548 -84.15674 -23.60023 3.30071 -1.20658 6.89348 -7.9612 -9.12133 3.58823 -4.55809 -9.5804 -0.4472 1.72812 3.45226 -7.77342 5.49841 5.08122 9.27651
-0.00013 0.95581 -0.00034 176.59062 0 -3.25842 5.55106 3.63277 -1.97048 -33.55161 0.70281 2.87886 10.95721 -63.2326 -86.749 22.38597 76.8231 -22.82569 -2.1145 23.48481 64.07078 70.13886 18.65705 -84.13986 -23.64154 3.28559 -1.21649 6.89082 -7.98121 -9.1098 3.5939 -4.57328 -9.57614 -0.44455 1.72718 3.44597 -7.77412 5.4877 5.07713 9.25664
-0.00017 0.95581 -0.00042 176.63252 0 -3.25097 5.52679 3.64121 -1.97054 -33.58323 0.70368 2.86602 10.94036 -63.22983 -86.76028 22.37702 76.76036 -22.81112 -2.1048 23.50186 64.08458 70.13513 18.6359 -84.11563 -23.66553 3.27052 -1.22754 6.88887 -8.00493 -9.09813 3.59873 -4.583 -9.57538 -0.44236 1.72658 3.43786 -7.77375 5.47987 5.07235 9.23132
-0.00023 0.95581 -0.0005 176.68928 0 -3.24375 5.5222 3.64282 -1.97841 -33.65818 0.70969 2.85545 10.97368 -63.23659 -86.78172 22.3806 76.75318 -22.79162 -2.10437 23.56804 64.09457 70.05154 18.66299 -84.07417 -23.64098 3.25388 -1.24189 6.88899 -8.03898 -9.0861 3.6023 -4.57738 -9.58484 -0.44161 1.72711 3.42561 -7.76995 5.48014 5.06551 9.18877
-0.00029 0.9558 -0.00057 176.75079 0 -3.2367 5.52504 3.64207 -1.9887 -33.74887 0.71704 2.84572 11.02598 -63.24626 -86.80571 22.38848 76.76514 -22.77103 -2.10765 23.65251 64.10307 69.93892 18.70738 -84.02487 -23.59904 3.23757 -1.25736 6.8898 -8.07677 -9.07392 3.60485 -4.56626 -9.59772 -0.4413 1.72796 3.4114 -7.76515 5.4833 5.05802 9.14109
-0.00035 0.95579 -0.00065 176.80941 0 -3.22966 5.52477 3.64256 -1.99744 -33.83234 0.72319 2.83561 11.07 -63.25405 -86.82752 22.39412 76.76649 -22.75195 -2.10972 23.72895 64.11229 69.83955 18.74365 -83.97685 -23.56549 3.22223 -1.27227 6.89025 -8.11285 -9.06177 3.60715 -4.55776 -9.60871 -0.44068 1.72858 3.39745 -7.76114 5.48503 5.05092 9.09712
-0.00041 0.95578 -0.00073 176.8713 0 -3.22226 5.52341 3.64233 -2.00821 -33.91627 0.73192 2.8255 11.11197 -63.26443 -86.85422 22.40105 76.77513 -22.72886 -2.10994 23.80409 64.12159 69.7396 18.78134 -83.93766 -23.5299 3.20226 -1.28748 6.89093 -8.14904 -9.04976 3.61235 -4.54869 -9.6212 -0.44052 1.72958 3.38599 -7.75574 5.48725 5.04337 9.04727
-0.00047 0.95577 -0.0008 176.92726 0 -3.21568 5.52603 3.64306 -2.01516 -34.00275 0.7355 2.81558 11.16347 -63.26983 -86.87063 22.40621 76.77413 -22.71354 -2.11471 23.88642 64.13005 69.63439 18.81974 -83.87925 -23.4944 3.19187 -1.30224 6.89127 -8.18578 -9.03745 3.61139 -4.53956 -9.63128 -0.43952 1.72985 3.3691 -7.75297 5.48917 5.03663 9.00851
-0.00054 0.95576 -0.00083 176.96802 0 -3.21114 5.53816 3.64663 -2.01229 -34.09436 0.72522 2.80617 11.23075 -63.26291 -86.86339 22.40635 76.73349 -22.72279 -2.13283 23.98322 64.13906 69.51797 18.85967 -83.76067 -23.46389 3.20913 -1.31614 6.89058 -8.22418 -9.02416 3.59275 -4.53121 -9.6346 -0.43606 1.72802 3.33582 -7.75796 5.48912 5.03211 9.00116
-0.0006 0.95575 -0.00085 177.00221 0 -3.20747 5.55396 3.65131 -2.00527 -34.18763 0.70959 2.79691 11.30845 -63.2504 -86.84428 22.40435 76.68416 -22.7394 -2.15518 24.08701 64.14665 69.39784 18.89897 -83.62463 -23.434 3.2358 -1.32938 6.88949 -8.26277 -9.01064 3.56812 -4.52305 -9.63524 -0.43174 1.72545 3.29757 -7.76559 5.48874 5.02845 9.00515
-0.00065 0.95574 -0.00088 177.03794 0 -3.20352 5.56785 3.65571 -1.99929 -34.27889 0.69593 2.78743 11.38474 -63.23911 -86.82756 22.4028 76.64414 -22.75077 -2.17439 24.1879 64.15348 69.28211 18.93614 -83.50253 -23.40346 3.25728 -1.34253 6.88849 -8.30064 -8.9973 3.54683 -4.51507 -9.6366 -0.42784 1.72321 3.26269 -7.77182 5.48877 5.02455 9.00433
-0.00073 0.95574 -0.00091 177.08005 0 -3.19906 5.58302 3.65908 -1.99693 -34.37603 0.68422 2.77854 11.44605 -63.23376 -86.82527 22.40383 76.58166 -22.77003 -2.19851 24.2873 64.16689 69.15453 18.98433 -83.35504 -23.37375 3.28253 -1.35752 6.88789 -8.34153 -8.9835 3.5229 -4.50577 -9.64018 -0.42388 1.721 3.22267 -7.77883 5.48778 5.02004 9.00217
-0.00076 0.95573 -0.00092 177.10711 0 -3.19591 5.59628 3.66487 -1.98607 -34.46106 0.66721 2.76857 11.54281 -63.21435 -86.78798 22.39864 76.56426 -22.77472 -2.21382 24.39242 64.16539 69.05035 19.0089 -83.25609 -23.34282 3.30228 -1.36833 6.88636 -8.37588 -8.97078 3.50306 -4.49931 -9.63848 -0.41977 1.71858 3.19268 -7.78489 5.48884 5.01695 9.00519
-0.00071 0.95571 -0.00088 177.09552 0 -3.1959 5.6036 3.67713 -1.95226 -34.51244 0.63639 2.75453 11.71895 -63.1596 -86.67296 22.37901 76.66933 -22.73648 -2.19986 24.50234 64.1301 69.01771 18.97063 -83.29812 -23.30706 3.30343 -1.36902 6.88221 -8.39412 -8.95991 3.49607 -4.50106 -9.62243 -0.41597 1.7154 3.18733 -7.78748 5.49539 5.01803 9.02322
-0.00061 0.95569 -0.00082 177.06877 0 -3.19722 5.60876 3.69177 -1.91016 -34.55132 0.60053 2.73958 11.93432 -63.0901 -86.51891 22.35257 76.82159 -22.68352 -2.17771 24.62001 64.0781 69.00729 18.90798 -83.38912 -23.2702 3.29891 -1.36524 6.87716 -8.40535 -8.95042 3.49342 -4.50562 -9.60125 -0.41189 1.71209 3.19291 -7.78911 5.50406 5.02044 9.04559
-0.00052 0.95567 -0.00077 177.04811 0 -3.19811 5.61475 3.70534 -1.87213 -34.59587 0.56726 2.72576 12.14077 -63.0264 -86.37371 22.32806 76.95372 -22.63787 -2.16167 24.73942 64.02969 68.98352 18.85512 -83.45602 -23.23499 3.29772 -1.36273 6.87263 -8.41851 -8.94103 3.48872 -4.50861 -9.58259 -0.40765 1.70909 3.19647 -7.79128 5.51188 5.02186 9.06353
-0.00046 0.95566 -0.00072 177.03058 0 -3.19832 5.62166 3.71899 -1.83254 -34.64108 0.53246 2.70898 12.30575 -62.96787 -86.27052 22.30923 77.07641 -22.58975 -2.13516 24.83451 63.99995 68.97532 18.80825 -83.53019 -23.19563 3.29369 -1.36362 6.86762 -8.43715 -8.92839 3.48404 -4.51274 -9.56283 -0.40479 1.70504 3.18798 -7.79295 5.51913 5.02481 9.09168
